<svg id="calendar" xmlns="http://www.w3.org/2000/svg" width="30.926" height="28.373" viewBox="0 0 30.926 28.373">
  <rect id="Rectangle_29" data-name="Rectangle 29" width="2.5" height="6.292" transform="translate(8.674)" fill="#d0dbe5"/>
  <rect id="Rectangle_30" data-name="Rectangle 30" width="2.5" height="6.292" transform="translate(19.522)" fill="#d0dbe5"/>
  <path id="Path_33" data-name="Path 33" d="M1110.956,1745.2h-7.218v2.5h4.718v21.151H1082.53V1747.7h4.175v-2.5h-6.675v26.151h30.926Z" transform="translate(-1080.03 -1742.976)" fill="#d0dbe5"/>
  <rect id="Rectangle_31" data-name="Rectangle 31" width="4.34" height="2.5" transform="translate(13.076 2.222)" fill="#d0dbe5"/>
  <path id="Subtraction_5" data-name="Subtraction 5" d="M7.065,7.065H0V0H7.065V7.064ZM2.209,2.209V4.916H4.916V2.209Z" transform="translate(19.812 8.602)" fill="#d0dbe5" stroke="rgba(0,0,0,0)" stroke-width="1"/>
  <path id="Subtraction_6" data-name="Subtraction 6" d="M7.065,7.065H0V0H7.065V7.064ZM2.209,2.209V4.916H4.916V2.209Z" transform="translate(11.956 8.602)" fill="#d0dbe5" stroke="rgba(0,0,0,0)" stroke-width="1"/>
  <path id="Subtraction_9" data-name="Subtraction 9" d="M7.065,7.065H0V0H7.065V7.064ZM2.209,2.209V4.916H4.916V2.209Z" transform="translate(11.956 16.602)" fill="#d0dbe5" stroke="rgba(0,0,0,0)" stroke-width="1"/>
  <path id="Subtraction_7" data-name="Subtraction 7" d="M7.065,7.065H0V0H7.065V7.064ZM2.209,2.209V4.916H4.916V2.209Z" transform="translate(4.101 8.602)" fill="#d0dbe5" stroke="rgba(0,0,0,0)" stroke-width="1"/>
  <path id="Subtraction_8" data-name="Subtraction 8" d="M7.065,7.065H0V0H7.065V7.064ZM2.209,2.209V4.916H4.916V2.209Z" transform="translate(4.101 16.602)" fill="#d0dbe5" stroke="rgba(0,0,0,0)" stroke-width="1"/>
</svg>
