<svg xmlns="http://www.w3.org/2000/svg" width="24.514" height="31.899" viewBox="0 0 24.514 31.899">
  <g id="trading_view" data-name="trading view" transform="translate(0 31.899) rotate(-90)">
    <rect id="Rectangle_21" data-name="Rectangle 21" width="10.446" height="2.5" transform="translate(21.454 2.021)" fill="#d0dbe5"/>
    <rect id="Rectangle_22" data-name="Rectangle 22" width="11.12" height="2.5" transform="translate(0 2.021)" fill="#d0dbe5"/>
    <path id="Path_27" data-name="Path 27" d="M8.475,0H0V6.544H8.475Zm-2.5,4.044H2.5V2.5H5.975Z" transform="translate(11.937)" fill="#d0dbe5"/>
    <rect id="Rectangle_23" data-name="Rectangle 23" width="3.707" height="2.5" transform="translate(28.193 11.008)" fill="#d0dbe5"/>
    <rect id="Rectangle_24" data-name="Rectangle 24" width="17.859" height="2.5" transform="translate(0 11.008)" fill="#d0dbe5"/>
    <path id="Path_28" data-name="Path 28" d="M8.475,0H0V6.544H8.475Zm-2.5,4.044H2.5V2.5H5.975Z" transform="translate(18.676 8.985)" fill="#d0dbe5"/>
    <rect id="Rectangle_25" data-name="Rectangle 25" width="14.939" height="2.5" transform="translate(16.96 19.993)" fill="#d0dbe5"/>
    <rect id="Rectangle_26" data-name="Rectangle 26" width="6.627" height="2.5" transform="translate(0 19.993)" fill="#d0dbe5"/>
    <path id="Path_29" data-name="Path 29" d="M8.475,6.543V0H0V6.543ZM2.5,2.5H5.975V4.043H2.5Z" transform="translate(7.444 17.971)" fill="#d0dbe5"/>
  </g>
</svg>
